<svg xmlns="http://www.w3.org/2000/svg" xmlns:xlink="http://www.w3.org/1999/xlink" width="48" height="48" version="1.1" viewBox="0 0 48 48"><title>BG Pattern</title><desc>Created with Sketch.</desc><g id="Designs" fill="none" fill-rule="evenodd" stroke="none" stroke-width="1"><g id="Home" fill="rgba(100, 0, 100, 0.1)" fill-rule="nonzero" transform="translate(-120.000000, -3143.000000)"><g id="BG-Pattern" transform="translate(120.000000, 3143.000000)"><rect id="Rectangle" width="2" height="1" x="9" y="0"/><rect id="Rectangle-Copy" width="2" height="1" x="13" y="0"/><rect id="Rectangle-Copy-3" width="2" height="1" x="17" y="0"/><rect id="Rectangle-Copy-4" width="2" height="1" x="21" y="0"/><rect id="Rectangle-Copy-5" width="2" height="1" x="25" y="0"/><rect id="Rectangle-Copy-7" width="2" height="1" x="29" y="0"/><rect id="Rectangle-Copy-8" width="2" height="1" x="33" y="0"/><rect id="Rectangle-Copy-9" width="2" height="1" x="37" y="0"/><rect id="Rectangle" width="2" height="1" x="-.5" y="9.5" transform="translate(0.500000, 10.000000) rotate(-270.000000) translate(-0.500000, -10.000000)"/><rect id="Rectangle-Copy" width="2" height="1" x="-.5" y="13.5" transform="translate(0.500000, 14.000000) rotate(-270.000000) translate(-0.500000, -14.000000)"/><rect id="Rectangle-Copy-3" width="2" height="1" x="-.5" y="17.5" transform="translate(0.500000, 18.000000) rotate(-270.000000) translate(-0.500000, -18.000000)"/><rect id="Rectangle-Copy-4" width="2" height="1" x="-.5" y="21.5" transform="translate(0.500000, 22.000000) rotate(-270.000000) translate(-0.500000, -22.000000)"/><rect id="Rectangle-Copy-5" width="2" height="1" x="-.5" y="25.5" transform="translate(0.500000, 26.000000) rotate(-270.000000) translate(-0.500000, -26.000000)"/><rect id="Rectangle-Copy-7" width="2" height="1" x="-.5" y="29.5" transform="translate(0.500000, 30.000000) rotate(-270.000000) translate(-0.500000, -30.000000)"/><rect id="Rectangle-Copy-8" width="2" height="1" x="-.5" y="33.5" transform="translate(0.500000, 34.000000) rotate(-270.000000) translate(-0.500000, -34.000000)"/><rect id="Rectangle-Copy-9" width="2" height="1" x="-.5" y="37.5" transform="translate(0.500000, 38.000000) rotate(-270.000000) translate(-0.500000, -38.000000)"/><rect id="Rectangle" width="2" height="1" x="46.5" y="9.5" transform="translate(47.500000, 10.000000) rotate(-270.000000) translate(-47.500000, -10.000000)"/><rect id="Rectangle-Copy" width="2" height="1" x="46.5" y="13.5" transform="translate(47.500000, 14.000000) rotate(-270.000000) translate(-47.500000, -14.000000)"/><rect id="Rectangle-Copy-3" width="2" height="1" x="46.5" y="17.5" transform="translate(47.500000, 18.000000) rotate(-270.000000) translate(-47.500000, -18.000000)"/><rect id="Rectangle-Copy-4" width="2" height="1" x="46.5" y="21.5" transform="translate(47.500000, 22.000000) rotate(-270.000000) translate(-47.500000, -22.000000)"/><rect id="Rectangle-Copy-5" width="2" height="1" x="46.5" y="25.5" transform="translate(47.500000, 26.000000) rotate(-270.000000) translate(-47.500000, -26.000000)"/><rect id="Rectangle-Copy-7" width="2" height="1" x="46.5" y="29.5" transform="translate(47.500000, 30.000000) rotate(-270.000000) translate(-47.500000, -30.000000)"/><rect id="Rectangle-Copy-8" width="2" height="1" x="46.5" y="33.5" transform="translate(47.500000, 34.000000) rotate(-270.000000) translate(-47.500000, -34.000000)"/><rect id="Rectangle-Copy-9" width="2" height="1" x="46.5" y="37.5" transform="translate(47.500000, 38.000000) rotate(-270.000000) translate(-47.500000, -38.000000)"/><rect id="Rectangle" width="2" height="1" x="9" y="47"/><rect id="Rectangle-Copy" width="2" height="1" x="13" y="47"/><rect id="Rectangle-Copy-3" width="2" height="1" x="17" y="47"/><rect id="Rectangle-Copy-4" width="2" height="1" x="21" y="47"/><rect id="Rectangle-Copy-5" width="2" height="1" x="25" y="47"/><rect id="Rectangle-Copy-7" width="2" height="1" x="29" y="47"/><rect id="Rectangle-Copy-8" width="2" height="1" x="33" y="47"/><rect id="Rectangle-Copy-9" width="2" height="1" x="37" y="47"/><path id="Combined-Shape" d="M1,1 L1,7 L0,7 L0,1 L0,0 L7,0 L7,1 L1,1 Z"/><path id="Combined-Shape-Copy" d="M42,1 L42,7 L41,7 L41,1 L41,0 L48,0 L48,1 L42,1 Z" transform="translate(44.500000, 3.500000) rotate(-270.000000) translate(-44.500000, -3.500000)"/><path id="Combined-Shape-Copy-2" d="M42,42 L42,48 L41,48 L41,42 L41,41 L48,41 L48,42 L42,42 Z" transform="translate(44.500000, 44.500000) rotate(-180.000000) translate(-44.500000, -44.500000)"/><path id="Combined-Shape-Copy-3" d="M1,42 L1,48 L0,48 L0,42 L0,41 L7,41 L7,42 L1,42 Z" transform="translate(3.500000, 44.500000) rotate(-90.000000) translate(-3.500000, -44.500000)"/></g></g></g></svg>