<svg xmlns="http://www.w3.org/2000/svg" xmlns:xlink="http://www.w3.org/1999/xlink" width="300" height="60" version="1.1" viewBox="0 0 300 60"><title>Republic Protocol Logo</title><desc>Created with Sketch.</desc><g id="Designs" fill="none" fill-rule="evenodd" stroke="none" stroke-width="1"><g id="Partners" fill="#000" transform="translate(-810.000000, -1176.000000)"><g id="Group-4" transform="translate(250.000000, 948.000000)"><g id="Group-3-Copy" transform="translate(480.000000, 158.000000)"><g id="Republic-Protocol-Logo" transform="translate(80.000000, 70.000000)"><g id="Group"><polygon id="Path" points="8.206 12.574 12.574 10.059 13.191 11.074 29.382 1.721 28.191 1.015 27 .353 26.426 0 0 15.265 0 15.926 7.588 11.559"/><polygon id="Path" points="8.206 22.191 20.912 14.868 21.485 15.882 37.721 6.529 36.529 5.824 35.338 5.162 34.765 4.809 0 24.838 0 25.544 7.588 21.176"/><polygon id="Path" points="8.206 27 25.059 17.25 25.632 18.265 41.868 8.912 40.676 8.25 39.485 7.544 38.912 7.191 0 29.647 0 30.353 7.588 25.941"/><polygon id="Path" points="8.206 31.765 29.338 19.588 29.912 20.603 46.015 11.294 44.824 10.632 43.632 9.926 43.059 9.618 0 34.456 0 35.118 7.588 30.75"/><polygon id="Path" points="8.206 36.574 33.485 21.971 34.059 23.029 50.162 13.721 48.971 13.015 47.824 12.353 47.206 12 0 39.265 0 39.926 7.588 35.559"/><polygon id="Path" points="51.971 14.735 51.353 14.382 0 44.074 0 44.735 7.588 40.368 8.206 41.382 33.485 26.779 34.059 27.794 52.853 16.985 52.853 15.618 52.853 15.265"/><polygon id="Path" points="3.265 47.647 7.5 45.221 8.118 46.235 33.353 31.632 33.971 32.691 52.853 21.75 52.853 20.382 52.853 19.015 52.853 18.353 2.691 47.294"/><polyline id="Path" points="33.353 36.441 33.971 37.5 52.853 26.559 52.853 25.191 52.853 23.824 52.853 23.162 6.838 49.721 7.412 50.074 11.735 47.559 12.353 48.574"/><polygon id="Path" points="11.559 52.456 15.926 49.941 16.5 51 33.353 41.25 33.971 42.265 52.853 31.368 52.853 30 52.853 28.632 52.853 27.926 10.985 52.103"/><polygon id="Path" points="15.75 54.838 20.074 52.368 20.647 53.382 33.353 46.059 33.971 47.074 52.853 36.176 52.853 34.809 52.853 33.441 52.853 32.735 15.132 54.529"/><polygon id="Path" points="19.279 56.912 19.897 57.265 24.221 54.75 24.794 55.809 33.353 50.868 33.971 51.882 52.853 40.985 52.853 39.618 52.853 38.206 52.853 37.544"/><polygon id="Path" points="24.044 59.647 28.368 57.176 28.985 58.191 33.353 55.632 33.971 56.691 52.853 45.794 52.853 44.382 52.853 43.015 52.853 42.353 23.471 59.338"/><polygon id="Path" points="33.574 4.103 32.382 3.441 32.382 3.441 31.191 2.735 30.574 2.382 0 20.074 0 20.735 7.588 16.368 8.206 17.382 16.765 12.441 17.338 13.456"/></g><g id="Group" transform="translate(74.117647, 25.147059)"><path id="Shape" fill-rule="nonzero" d="M0,9.35294118 L0,0 L8.42647059,0 C9.17647059,0 9.75,0.132352941 10.1029412,0.441176471 C10.4558824,0.705882353 10.6323529,1.19117647 10.6323529,1.80882353 L10.6323529,4.01470588 C10.6323529,4.63235294 10.4558824,5.11764706 10.1029412,5.38235294 C9.75,5.64705882 9.22058824,5.82352941 8.42647059,5.82352941 L7.14705882,5.82352941 L11.6029412,9.35294118 L8.33823529,9.35294118 L4.41176471,5.82352941 L2.25,5.82352941 L2.25,9.35294118 L0,9.35294118 Z M7.45588235,1.63235294 L2.25,1.63235294 L2.25,4.23529412 L7.45588235,4.23529412 C7.85294118,4.23529412 8.11764706,4.19117647 8.25,4.05882353 C8.38235294,3.92647059 8.47058824,3.75 8.47058824,3.48529412 L8.47058824,2.42647059 C8.47058824,2.16176471 8.38235294,1.94117647 8.25,1.85294118 C8.11764706,1.67647059 7.85294118,1.63235294 7.45588235,1.63235294 Z"/><polygon id="Path" points="14.382 9.353 14.382 0 24.397 0 24.397 1.632 16.676 1.632 16.676 3.662 21.176 3.662 21.176 5.294 16.676 5.294 16.676 7.588 24.529 7.588 24.529 9.353"/><path id="Shape" fill-rule="nonzero" d="M27.7941176,9.35294118 L27.7941176,0 L36.1764706,0 C36.9705882,0 37.5,0.132352941 37.8529412,0.441176471 C38.2058824,0.705882353 38.3823529,1.19117647 38.3823529,1.80882353 L38.3823529,3.88235294 C38.3823529,4.54411765 38.2058824,4.98529412 37.8529412,5.25 C37.5,5.51470588 36.9705882,5.69117647 36.1764706,5.69117647 L30,5.69117647 L30,9.35294118 L27.7941176,9.35294118 Z M35.2058824,1.63235294 L30,1.63235294 L30,4.10294118 L35.2058824,4.10294118 C35.6029412,4.10294118 35.8676471,4.05882353 36,3.92647059 C36.1323529,3.79411765 36.2205882,3.61764706 36.2205882,3.35294118 L36.2205882,2.38235294 C36.2205882,2.11764706 36.1323529,1.89705882 36,1.80882353 C35.8676471,1.67647059 35.6029412,1.63235294 35.2058824,1.63235294 Z"/><path id="Path" d="M44.2941176,0 L44.2941176,7.58823529 L50.7794118,7.58823529 L50.7794118,0 L53.0735294,0 L53.0735294,7.10294118 C53.0735294,7.94117647 52.8970588,8.51470588 52.5441176,8.82352941 C52.1911765,9.13235294 51.5735294,9.30882353 50.6029412,9.30882353 L44.4264706,9.30882353 C43.5,9.30882353 42.8382353,9.17647059 42.4852941,8.82352941 C42.1323529,8.51470588 42,7.94117647 42,7.05882353 L42,0 L44.2941176,0 Z"/><path id="Shape" fill-rule="nonzero" d="M57.2647059,9.35294118 L57.2647059,0 L65.6470588,0 C66.4411765,0 67.0147059,0.132352941 67.3235294,0.441176471 C67.6764706,0.705882353 67.8529412,1.19117647 67.8529412,1.80882353 L67.8529412,2.91176471 C67.8529412,3.35294118 67.7205882,3.70588235 67.4558824,3.97058824 C67.1911765,4.23529412 66.7941176,4.41176471 66.2647059,4.5 C66.7941176,4.58823529 67.1911765,4.76470588 67.5,5.11764706 C67.8088235,5.42647059 67.9411765,5.82352941 67.9411765,6.30882353 L67.9411765,7.5 C67.9411765,8.11764706 67.7205882,8.55882353 67.2352941,8.86764706 C66.75,9.17647059 66.0441176,9.30882353 65.0735294,9.30882353 L57.2647059,9.30882353 L57.2647059,9.35294118 Z M64.5882353,1.54411765 L59.4705882,1.54411765 L59.4705882,3.75 L64.5882353,3.75 C64.9852941,3.75 65.25,3.70588235 65.3823529,3.61764706 C65.5147059,3.52941176 65.6029412,3.35294118 65.6029412,3.08823529 L65.6029412,2.20588235 C65.6029412,1.94117647 65.5147059,1.80882353 65.3823529,1.67647059 C65.25,1.54411765 64.9852941,1.54411765 64.5882353,1.54411765 Z M64.5882353,5.29411765 L59.4705882,5.29411765 L59.4705882,7.67647059 L64.5882353,7.67647059 C65.0294118,7.67647059 65.2941176,7.63235294 65.4705882,7.5 C65.6470588,7.36764706 65.6911765,7.14705882 65.6911765,6.83823529 L65.6911765,6.13235294 C65.6911765,5.82352941 65.6029412,5.60294118 65.4705882,5.47058824 C65.3382353,5.33823529 65.0294118,5.29411765 64.5882353,5.29411765 Z"/><polygon id="Path" points="71.779 9.353 71.779 0 74.074 0 74.074 7.588 81.397 7.588 81.397 9.353"/><polygon id="Path" points="83.956 9.353 83.956 0 86.206 0 86.206 9.353"/><path id="Path" d="M98.5588235,1.72058824 L92.4264706,1.72058824 L92.4264706,7.54411765 L98.5588235,7.54411765 L98.5588235,5.55882353 L100.852941,6.04411765 L100.852941,7.14705882 C100.852941,7.98529412 100.676471,8.55882353 100.367647,8.86764706 C100.014706,9.17647059 99.3970588,9.35294118 98.4264706,9.35294118 L92.6029412,9.35294118 C91.6764706,9.35294118 91.0147059,9.22058824 90.7058824,8.86764706 C90.3529412,8.55882353 90.2205882,7.98529412 90.2205882,7.10294118 L90.2205882,2.20588235 C90.2205882,1.36764706 90.3970588,0.794117647 90.7058824,0.485294118 C91.0588235,0.176470588 91.6764706,0 92.6470588,0 L98.3823529,0 C99.3529412,0 100.014706,0.132352941 100.323529,0.485294118 C100.676471,0.794117647 100.808824,1.36764706 100.808824,2.20588235 L100.808824,3.13235294 L98.5147059,3.48529412 L98.5147059,1.72058824 L98.5588235,1.72058824 Z"/><path id="Shape" fill-rule="nonzero" d="M113.117647,9.35294118 L113.117647,0 L121.544118,0 C122.338235,0 122.867647,0.132352941 123.220588,0.441176471 C123.573529,0.705882353 123.75,1.19117647 123.75,1.80882353 L123.75,3.88235294 C123.75,4.54411765 123.573529,4.98529412 123.220588,5.25 C122.867647,5.51470588 122.338235,5.69117647 121.544118,5.69117647 L115.367647,5.69117647 L115.367647,9.35294118 L113.117647,9.35294118 Z M120.573529,1.63235294 L115.367647,1.63235294 L115.367647,4.10294118 L120.573529,4.10294118 C120.970588,4.10294118 121.235294,4.05882353 121.367647,3.92647059 C121.5,3.79411765 121.588235,3.61764706 121.588235,3.35294118 L121.588235,2.38235294 C121.588235,2.11764706 121.5,1.89705882 121.367647,1.80882353 C121.235294,1.67647059 120.970588,1.63235294 120.573529,1.63235294 Z"/><path id="Shape" fill-rule="nonzero" d="M126.970588,9.35294118 L126.970588,0 L135.397059,0 C136.147059,0 136.720588,0.132352941 137.073529,0.441176471 C137.426471,0.705882353 137.602941,1.19117647 137.602941,1.80882353 L137.602941,4.01470588 C137.602941,4.63235294 137.426471,5.11764706 137.073529,5.38235294 C136.720588,5.64705882 136.191176,5.82352941 135.397059,5.82352941 L134.117647,5.82352941 L138.573529,9.35294118 L135.308824,9.35294118 L131.382353,5.82352941 L129.220588,5.82352941 L129.220588,9.35294118 L126.970588,9.35294118 Z M134.426471,1.63235294 L129.220588,1.63235294 L129.220588,4.23529412 L134.426471,4.23529412 C134.823529,4.23529412 135.088235,4.19117647 135.220588,4.05882353 C135.352941,3.92647059 135.441176,3.75 135.441176,3.48529412 L135.441176,2.42647059 C135.441176,2.16176471 135.352941,1.94117647 135.220588,1.85294118 C135.088235,1.67647059 134.823529,1.63235294 134.426471,1.63235294 Z"/><path id="Shape" fill-rule="nonzero" d="M141.132353,2.20588235 C141.132353,1.36764706 141.308824,0.794117647 141.617647,0.485294118 C141.926471,0.176470588 142.588235,0 143.558824,0 L150.794118,0 C151.764706,0 152.382353,0.132352941 152.735294,0.485294118 C153.044118,0.794117647 153.220588,1.36764706 153.220588,2.20588235 L153.220588,7.14705882 C153.220588,7.98529412 153.044118,8.60294118 152.735294,8.91176471 C152.382353,9.22058824 151.764706,9.39705882 150.794118,9.39705882 L143.558824,9.39705882 C142.588235,9.39705882 141.970588,9.26470588 141.617647,8.91176471 C141.308824,8.60294118 141.132353,8.02941176 141.132353,7.14705882 L141.132353,2.20588235 Z M143.382353,7.54411765 L150.926471,7.54411765 L150.926471,1.72058824 L143.382353,1.72058824 L143.382353,7.54411765 Z"/><polygon id="Path" points="162.662 1.676 162.662 9.353 160.368 9.353 160.368 1.676 155.868 1.676 155.868 0 167.206 0 167.206 1.676"/><path id="Shape" fill-rule="nonzero" d="M169.897059,2.20588235 C169.897059,1.36764706 170.073529,0.794117647 170.382353,0.485294118 C170.691176,0.176470588 171.352941,0 172.323529,0 L179.558824,0 C180.529412,0 181.147059,0.132352941 181.5,0.485294118 C181.808824,0.794117647 181.985294,1.36764706 181.985294,2.20588235 L181.985294,7.14705882 C181.985294,7.98529412 181.808824,8.60294118 181.5,8.91176471 C181.147059,9.22058824 180.529412,9.39705882 179.558824,9.39705882 L172.323529,9.39705882 C171.352941,9.39705882 170.735294,9.26470588 170.382353,8.91176471 C170.073529,8.60294118 169.897059,8.02941176 169.897059,7.14705882 L169.897059,2.20588235 Z M172.191176,7.54411765 L179.735294,7.54411765 L179.735294,1.72058824 L172.191176,1.72058824 L172.191176,7.54411765 Z"/><path id="Path" d="M194.073529,1.72058824 L187.941176,1.72058824 L187.941176,7.54411765 L194.073529,7.54411765 L194.073529,5.55882353 L196.367647,6.04411765 L196.367647,7.14705882 C196.367647,7.98529412 196.191176,8.55882353 195.882353,8.86764706 C195.529412,9.17647059 194.911765,9.35294118 193.941176,9.35294118 L188.117647,9.35294118 C187.191176,9.35294118 186.529412,9.22058824 186.220588,8.86764706 C185.867647,8.55882353 185.735294,7.98529412 185.735294,7.10294118 L185.735294,2.20588235 C185.735294,1.36764706 185.911765,0.794117647 186.220588,0.485294118 C186.573529,0.176470588 187.191176,0 188.161765,0 L193.985294,0 C194.955882,0 195.617647,0.132352941 195.926471,0.485294118 C196.279412,0.794117647 196.411765,1.36764706 196.411765,2.20588235 L196.411765,3.13235294 L194.117647,3.48529412 L194.117647,1.72058824 L194.073529,1.72058824 Z"/><path id="Shape" fill-rule="nonzero" d="M199.897059,2.20588235 C199.897059,1.36764706 200.073529,0.794117647 200.382353,0.485294118 C200.691176,0.176470588 201.352941,0 202.323529,0 L209.558824,0 C210.529412,0 211.147059,0.132352941 211.5,0.485294118 C211.808824,0.794117647 211.985294,1.36764706 211.985294,2.20588235 L211.985294,7.14705882 C211.985294,7.98529412 211.808824,8.60294118 211.5,8.91176471 C211.147059,9.22058824 210.529412,9.39705882 209.558824,9.39705882 L202.323529,9.39705882 C201.352941,9.39705882 200.735294,9.26470588 200.382353,8.91176471 C200.073529,8.60294118 199.897059,8.02941176 199.897059,7.14705882 L199.897059,2.20588235 Z M202.191176,7.54411765 L209.735294,7.54411765 L209.735294,1.72058824 L202.191176,1.72058824 L202.191176,7.54411765 Z"/><polygon id="Path" points="215.912 9.353 215.912 0 218.206 0 218.206 7.588 225.529 7.588 225.529 9.353"/></g></g></g></g></g></g></svg>