<svg xmlns="http://www.w3.org/2000/svg" xmlns:xlink="http://www.w3.org/1999/xlink" width="196" height="209" version="1.1" viewBox="0 0 196 209"><title>Image - Ethereum</title><desc>Created with Sketch.</desc><defs><linearGradient id="linearGradient-1" x1="17.801%" x2="91.081%" y1="12.323%" y2="94.559%"><stop offset="0%" stop-color="#282138"/><stop offset="100%" stop-color="#8C4398"/></linearGradient><circle id="path-2" cx="98" cy="98" r="98"/><linearGradient id="linearGradient-4" x1="45.134%" x2="11.404%" y1="44.761%" y2="26.329%"><stop offset="0%" stop-color="#000" stop-opacity="0"/><stop offset="100%" stop-color="#000"/></linearGradient></defs><g id="Designs" fill="none" fill-rule="evenodd" stroke="none" stroke-width="1"><g id="Home" transform="translate(-324.000000, -1622.000000)"><g id="WHY-DO-WE-NEED-WBTC?" transform="translate(250.000000, 923.000000)"><g id="3.-Ethereum-Node" transform="translate(74.000000, 699.000000)"><g id="Image---Ethereum"><g id="BG" transform="translate(0.000000, 13.000000)"><mask id="mask-3" fill="#fff"><use xlink:href="#path-2"/></mask><g id="Mask" fill-rule="nonzero"><use fill="#282138" xlink:href="#path-2"/><use fill="url(#linearGradient-1)" xlink:href="#path-2"/></g><polygon id="Fill-1" fill="url(#linearGradient-4)" points="316.788 396.599 90.734 170.463 90.734 -11.364 316.788 214.772" mask="url(#mask-3)" opacity=".4"/></g><g id="Group-15" transform="translate(35.000000, 0.319390)"><polygon id="Fill-4" fill="#6276AE" points="55.734 .401 0 92.91 55.734 125.862 111.468 92.91"/><polygon id="Fill-5" fill="#6276AE" points="55.734 136.403 0 103.481 55.734 182.038 111.499 103.481"/><polygon id="Fill-6" fill="#FFF" points="0 92.911 55.734 125.861 55.734 .399" opacity=".2"/><polygon id="Fill-9" fill="#FFF" points="0 103.482 55.734 182.038 55.734 136.403" opacity=".1"/><polygon id="Fill-11" fill="#FFF" points="55.734 118.006 55.734 97.294 19.31 60.858 11.526 73.781" opacity=".15"/><polygon id="Fill-13" fill="#FFF" points="55.734 80.51 55.734 68.775 30.033 43.063 25.62 50.385" opacity=".25"/></g></g></g></g></g></g></svg>